<svg xmlns="http://www.w3.org/2000/svg" width="120" height="120" id="india"><g fill="#fff" fill-rule="evenodd" transform="matrix(.975 0 0 .975 11.25 -917.303)"><circle cx="50" cy="1002.362" r="61.538" fill="#239fdb"></circle><path d="M14.103 1000.343a1.005 1.005 0 1 1-2.01 0 1.005 1.005 0 0 1 2.01 0zM14.103 1004.388a1.005 1.005 0 1 1-2.01 0 1.005 1.005 0 0 1 2.01 0zM18.119 988.296a1.005 1.005 0 1 1-2.01 0 1.005 1.005 0 0 1 2.01 0zM18.119 992.308a1.005 1.005 0 1 1-2.01 0 1.005 1.005 0 0 1 2.01 0zM18.119 1000.343a1.005 1.005 0 1 1-2.01 0 1.005 1.005 0 0 1 2.01 0zM18.119 1004.388a1.005 1.005 0 1 1-2.01 0 1.005 1.005 0 0 1 2.01 0zM18.119 1008.4a1.005 1.005 0 1 1-2.01 0 1.005 1.005 0 0 1 2.01 0zM22.133 988.296a1.005 1.005 0 1 1-2.01 0 1.005 1.005 0 0 1 2.01 0zM22.133 992.308a1.005 1.005 0 1 1-2.01 0 1.005 1.005 0 0 1 2.01 0zM22.133 996.353a1.005 1.005 0 1 1-2.01 0 1.005 1.005 0 0 1 2.01 0zM22.133 1000.343a1.005 1.005 0 1 1-2.01 0 1.005 1.005 0 0 1 2.01 0zM22.133 1004.388a1.005 1.005 0 1 1-2.01 0 1.005 1.005 0 0 1 2.01 0zM22.133 1008.4a1.005 1.005 0 1 1-2.01 0 1.005 1.005 0 0 1 2.01 0zM22.133 1012.446a1.005 1.005 0 1 1-2.01 0 1.005 1.005 0 0 1 2.01 0zM26.149 984.25a1.005 1.005 0 1 1-2.01 0 1.005 1.005 0 0 1 2.01 0zM26.149 988.296a1.005 1.005 0 1 1-2.01 0 1.005 1.005 0 0 1 2.01 0zM26.149 992.308a1.005 1.005 0 1 1-2.01 0 1.005 1.005 0 0 1 2.01 0zM26.149 996.353a1.005 1.005 0 1 1-2.01 0 1.005 1.005 0 0 1 2.01 0zM26.149 1000.343a1.005 1.005 0 1 1-2.01 0 1.005 1.005 0 0 1 2.01 0zM26.149 1004.388a1.005 1.005 0 1 1-2.01 0 1.005 1.005 0 0 1 2.01 0zM26.149 1008.4a1.005 1.005 0 1 1-2.01 0 1.005 1.005 0 0 1 2.01 0zM30.164 952.086a1.005 1.005 0 1 1-2.01 0 1.005 1.005 0 0 1 2.01 0zM30.164 956.13a1.005 1.005 0 1 1-2.01 0 1.005 1.005 0 0 1 2.01 0zM30.164 964.189a1.005 1.005 0 1 1-2.01 0 1.005 1.005 0 0 1 2.01 0zM30.164 980.286a1.005 1.005 0 1 1-2.01 0 1.005 1.005 0 0 1 2.01 0zM30.164 984.25a1.005 1.005 0 1 1-2.01 0 1.005 1.005 0 0 1 2.01 0zM30.164 988.296a1.005 1.005 0 1 1-2.01 0 1.005 1.005 0 0 1 2.01 0zM30.164 992.308a1.005 1.005 0 1 1-2.01 0 1.005 1.005 0 0 1 2.01 0zM30.164 996.353a1.005 1.005 0 1 1-2.01 0 1.005 1.005 0 0 1 2.01 0zM30.164 1000.343a1.005 1.005 0 1 1-2.01 0 1.005 1.005 0 0 1 2.01 0zM30.164 1004.388a1.005 1.005 0 1 1-2.01 0 1.005 1.005 0 0 1 2.01 0zM30.164 1008.4a1.005 1.005 0 1 1-2.01 0 1.005 1.005 0 0 1 2.01 0zM30.164 1012.446a1.005 1.005 0 1 1-2.01 0 1.005 1.005 0 0 1 2.01 0zM30.164 1016.428a1.005 1.005 0 1 1-2.01 0 1.005 1.005 0 0 1 2.01 0zM30.164 1020.473a1.005 1.005 0 1 1-2.01 0 1.005 1.005 0 0 1 2.01 0zM30.164 1024.485a1.005 1.005 0 1 1-2.01 0 1.005 1.005 0 0 1 2.01 0zM30.164 1028.53a1.005 1.005 0 1 1-2.01 0 1.005 1.005 0 0 1 2.01 0zM34.18 952.086a1.005 1.005 0 1 1-2.01 0 1.005 1.005 0 0 1 2.01 0zM34.18 956.13a1.005 1.005 0 1 1-2.01 0 1.005 1.005 0 0 1 2.01 0zM34.18 960.144a1.005 1.005 0 1 1-2.01 0 1.005 1.005 0 0 1 2.01 0zM34.18 964.189a1.005 1.005 0 1 1-2.01 0 1.005 1.005 0 0 1 2.01 0zM34.18 968.181a1.005 1.005 0 1 1-2.01 0 1.005 1.005 0 0 1 2.01 0zM34.18 972.228a1.005 1.005 0 1 1-2.01 0 1.005 1.005 0 0 1 2.01 0zM34.18 976.24a1.005 1.005 0 1 1-2.01 0 1.005 1.005 0 0 1 2.01 0zM34.18 980.286a1.005 1.005 0 1 1-2.01 0 1.005 1.005 0 0 1 2.01 0zM34.18 984.25a1.005 1.005 0 1 1-2.01 0 1.005 1.005 0 0 1 2.01 0zM34.18 988.296a1.005 1.005 0 1 1-2.01 0 1.005 1.005 0 0 1 2.01 0zM34.18 992.308a1.005 1.005 0 1 1-2.01 0 1.005 1.005 0 0 1 2.01 0zM34.18 996.353a1.005 1.005 0 1 1-2.01 0 1.005 1.005 0 0 1 2.01 0zM34.18 1000.343a1.005 1.005 0 1 1-2.01 0 1.005 1.005 0 0 1 2.01 0zM34.18 1004.388a1.005 1.005 0 1 1-2.01 0 1.005 1.005 0 0 1 2.01 0zM34.18 1008.4a1.005 1.005 0 1 1-2.01 0 1.005 1.005 0 0 1 2.01 0zM34.18 1012.446a1.005 1.005 0 1 1-2.01 0 1.005 1.005 0 0 1 2.01 0zM34.18 1016.428a1.005 1.005 0 1 1-2.01 0 1.005 1.005 0 0 1 2.01 0zM34.18 1020.473a1.005 1.005 0 1 1-2.01 0 1.005 1.005 0 0 1 2.01 0zM34.18 1024.485a1.005 1.005 0 1 1-2.01 0 1.005 1.005 0 0 1 2.01 0zM34.18 1028.53a1.005 1.005 0 1 1-2.01 0 1.005 1.005 0 0 1 2.01 0zM34.18 1032.492a1.005 1.005 0 1 1-2.01 0 1.005 1.005 0 0 1 2.01 0zM34.18 1036.538a1.005 1.005 0 1 1-2.01 0 1.005 1.005 0 0 1 2.01 0zM38.218 956.096a1.005 1.005 0 1 1-2.01 0 1.005 1.005 0 0 1 2.01 0zM38.218 960.11a1.005 1.005 0 1 1-2.01 0 1.005 1.005 0 0 1 2.01 0zM38.218 964.155a1.005 1.005 0 1 1-2.01 0 1.005 1.005 0 0 1 2.01 0zM38.218 968.149a1.005 1.005 0 1 1-2.01 0 1.005 1.005 0 0 1 2.01 0zM38.218 972.193a1.005 1.005 0 1 1-2.01 0 1.005 1.005 0 0 1 2.01 0zM38.218 976.207a1.005 1.005 0 1 1-2.01 0 1.005 1.005 0 0 1 2.01 0zM38.218 980.252a1.005 1.005 0 1 1-2.01 0 1.005 1.005 0 0 1 2.01 0zM38.218 984.216a1.005 1.005 0 1 1-2.01 0 1.005 1.005 0 0 1 2.01 0zM38.218 988.262a1.005 1.005 0 1 1-2.01 0 1.005 1.005 0 0 1 2.01 0zM38.218 992.275a1.005 1.005 0 1 1-2.01 0 1.005 1.005 0 0 1 2.01 0zM38.218 996.32a1.005 1.005 0 1 1-2.01 0 1.005 1.005 0 0 1 2.01 0zM38.218 1000.31a1.005 1.005 0 1 1-2.01 0 1.005 1.005 0 0 1 2.01 0zM38.218 1004.353a1.005 1.005 0 1 1-2.01 0 1.005 1.005 0 0 1 2.01 0zM38.218 1008.368a1.005 1.005 0 1 1-2.01 0 1.005 1.005 0 0 1 2.01 0zM38.218 1012.412a1.005 1.005 0 1 1-2.01 0 1.005 1.005 0 0 1 2.01 0zM38.218 1016.394a1.005 1.005 0 1 1-2.01 0 1.005 1.005 0 0 1 2.01 0zM38.218 1020.44a1.005 1.005 0 1 1-2.01 0 1.005 1.005 0 0 1 2.01 0zM38.218 1024.453a1.005 1.005 0 1 1-2.01 0 1.005 1.005 0 0 1 2.01 0zM38.218 1028.497a1.005 1.005 0 1 1-2.01 0 1.005 1.005 0 0 1 2.01 0zM38.218 1032.459a1.005 1.005 0 1 1-2.01 0 1.005 1.005 0 0 1 2.01 0zM38.218 1036.504a1.005 1.005 0 1 1-2.01 0 1.005 1.005 0 0 1 2.01 0zM38.218 1040.517a1.005 1.005 0 1 1-2.01 0 1.005 1.005 0 0 1 2.01 0zM38.218 1044.562a1.005 1.005 0 1 1-2.01 0 1.005 1.005 0 0 1 2.01 0zM42.246 960.15a1.005 1.005 0 1 1-2.01 0 1.005 1.005 0 0 1 2.01 0zM42.246 964.194a1.005 1.005 0 1 1-2.01 0 1.005 1.005 0 0 1 2.01 0zM42.246 968.188a1.005 1.005 0 1 1-2.01 0 1.005 1.005 0 0 1 2.01 0zM42.246 972.233a1.005 1.005 0 1 1-2.01 0 1.005 1.005 0 0 1 2.01 0zM42.246 976.246a1.005 1.005 0 1 1-2.01 0 1.005 1.005 0 0 1 2.01 0zM42.246 980.29a1.005 1.005 0 1 1-2.01 0 1.005 1.005 0 0 1 2.01 0zM42.246 984.256a1.005 1.005 0 1 1-2.01 0 1.005 1.005 0 0 1 2.01 0zM42.246 988.3a1.005 1.005 0 1 1-2.01 0 1.005 1.005 0 0 1 2.01 0zM42.246 992.314a1.005 1.005 0 1 1-2.01 0 1.005 1.005 0 0 1 2.01 0zM42.246 996.36a1.005 1.005 0 1 1-2.01 0 1.005 1.005 0 0 1 2.01 0zM42.246 1000.348a1.005 1.005 0 1 1-2.01 0 1.005 1.005 0 0 1 2.01 0zM42.246 1004.393a1.005 1.005 0 1 1-2.01 0 1.005 1.005 0 0 1 2.01 0zM42.246 1008.407a1.005 1.005 0 1 1-2.01 0 1.005 1.005 0 0 1 2.01 0zM42.246 1012.452a1.005 1.005 0 1 1-2.01 0 1.005 1.005 0 0 1 2.01 0zM42.246 1016.433a1.005 1.005 0 1 1-2.01 0 1.005 1.005 0 0 1 2.01 0zM42.246 1020.478a1.005 1.005 0 1 1-2.01 0 1.005 1.005 0 0 1 2.01 0zM42.246 1024.49a1.005 1.005 0 1 1-2.01 0 1.005 1.005 0 0 1 2.01 0zM42.246 1028.537a1.005 1.005 0 1 1-2.01 0 1.005 1.005 0 0 1 2.01 0zM42.246 1032.497a1.005 1.005 0 1 1-2.01 0 1.005 1.005 0 0 1 2.01 0zM42.246 1036.543a1.005 1.005 0 1 1-2.01 0 1.005 1.005 0 0 1 2.01 0zM42.246 1040.556a1.005 1.005 0 1 1-2.01 0 1.005 1.005 0 0 1 2.01 0zM42.246 1044.601a1.005 1.005 0 1 1-2.01 0 1.005 1.005 0 0 1 2.01 0zM42.246 1048.594a1.005 1.005 0 1 1-2.01 0 1.005 1.005 0 0 1 2.01 0zM42.246 1052.64a1.005 1.005 0 1 1-2.01 0 1.005 1.005 0 0 1 2.01 0zM46.241 956.136a1.005 1.005 0 1 1-2.01 0 1.005 1.005 0 0 1 2.01 0zM46.241 960.15a1.005 1.005 0 1 1-2.01 0 1.005 1.005 0 0 1 2.01 0zM46.241 964.194a1.005 1.005 0 1 1-2.01 0 1.005 1.005 0 0 1 2.01 0zM46.241 968.188a1.005 1.005 0 1 1-2.01 0 1.005 1.005 0 0 1 2.01 0zM46.241 972.233a1.005 1.005 0 1 1-2.01 0 1.005 1.005 0 0 1 2.01 0zM46.241 976.246a1.005 1.005 0 1 1-2.01 0 1.005 1.005 0 0 1 2.01 0zM46.241 980.29a1.005 1.005 0 1 1-2.01 0 1.005 1.005 0 0 1 2.01 0zM46.241 984.256a1.005 1.005 0 1 1-2.01 0 1.005 1.005 0 0 1 2.01 0zM46.241 988.3a1.005 1.005 0 1 1-2.01 0 1.005 1.005 0 0 1 2.01 0zM46.241 992.314a1.005 1.005 0 1 1-2.01 0 1.005 1.005 0 0 1 2.01 0zM46.241 996.36a1.005 1.005 0 1 1-2.01 0 1.005 1.005 0 0 1 2.01 0zM46.241 1000.348a1.005 1.005 0 1 1-2.01 0 1.005 1.005 0 0 1 2.01 0zM46.241 1004.393a1.005 1.005 0 1 1-2.01 0 1.005 1.005 0 0 1 2.01 0zM46.241 1008.407a1.005 1.005 0 1 1-2.01 0 1.005 1.005 0 0 1 2.01 0zM46.241 1012.452a1.005 1.005 0 1 1-2.01 0 1.005 1.005 0 0 1 2.01 0zM46.241 1016.433a1.005 1.005 0 1 1-2.01 0 1.005 1.005 0 0 1 2.01 0zM46.241 1020.478a1.005 1.005 0 1 1-2.01 0 1.005 1.005 0 0 1 2.01 0zM46.241 1024.49a1.005 1.005 0 1 1-2.01 0 1.005 1.005 0 0 1 2.01 0zM46.241 1028.537a1.005 1.005 0 1 1-2.01 0 1.005 1.005 0 0 1 2.01 0zM46.241 1032.497a1.005 1.005 0 1 1-2.01 0 1.005 1.005 0 0 1 2.01 0zM46.241 1036.543a1.005 1.005 0 1 1-2.01 0 1.005 1.005 0 0 1 2.01 0zM46.241 1040.556a1.005 1.005 0 1 1-2.01 0 1.005 1.005 0 0 1 2.01 0zM46.241 1044.601a1.005 1.005 0 1 1-2.01 0 1.005 1.005 0 0 1 2.01 0zM46.241 1048.594a1.005 1.005 0 1 1-2.01 0 1.005 1.005 0 0 1 2.01 0zM50.277 956.136a1.005 1.005 0 1 1-2.01 0 1.005 1.005 0 0 1 2.01 0zM50.277 960.15a1.005 1.005 0 1 1-2.01 0 1.005 1.005 0 0 1 2.01 0zM50.277 964.194a1.005 1.005 0 1 1-2.01 0 1.005 1.005 0 0 1 2.01 0zM50.277 968.188a1.005 1.005 0 1 1-2.01 0 1.005 1.005 0 0 1 2.01 0zM50.277 976.246a1.005 1.005 0 1 1-2.01 0 1.005 1.005 0 0 1 2.01 0zM50.277 980.29a1.005 1.005 0 1 1-2.01 0 1.005 1.005 0 0 1 2.01 0zM50.277 984.256a1.005 1.005 0 1 1-2.01 0 1.005 1.005 0 0 1 2.01 0zM50.277 988.3a1.005 1.005 0 1 1-2.01 0 1.005 1.005 0 0 1 2.01 0zM50.277 992.314a1.005 1.005 0 1 1-2.01 0 1.005 1.005 0 0 1 2.01 0zM50.277 996.36a1.005 1.005 0 1 1-2.01 0 1.005 1.005 0 0 1 2.01 0zM50.277 1000.348a1.005 1.005 0 1 1-2.01 0 1.005 1.005 0 0 1 2.01 0zM50.277 1004.393a1.005 1.005 0 1 1-2.01 0 1.005 1.005 0 0 1 2.01 0zM50.277 1008.407a1.005 1.005 0 1 1-2.01 0 1.005 1.005 0 0 1 2.01 0zM50.277 1012.452a1.005 1.005 0 1 1-2.01 0 1.005 1.005 0 0 1 2.01 0zM50.277 1016.433a1.005 1.005 0 1 1-2.01 0 1.005 1.005 0 0 1 2.01 0zM50.277 1020.478a1.005 1.005 0 1 1-2.01 0 1.005 1.005 0 0 1 2.01 0zM50.277 1024.49a1.005 1.005 0 1 1-2.01 0 1.005 1.005 0 0 1 2.01 0zM50.277 1028.537a1.005 1.005 0 1 1-2.01 0 1.005 1.005 0 0 1 2.01 0zM50.277 1032.497a1.005 1.005 0 1 1-2.01 0 1.005 1.005 0 0 1 2.01 0zM50.277 1036.543a1.005 1.005 0 1 1-2.01 0 1.005 1.005 0 0 1 2.01 0zM50.277 1040.556a1.005 1.005 0 1 1-2.01 0 1.005 1.005 0 0 1 2.01 0zM50.277 1044.601a1.005 1.005 0 1 1-2.01 0 1.005 1.005 0 0 1 2.01 0zM54.297 980.29a1.005 1.005 0 1 1-2.01 0 1.005 1.005 0 0 1 2.01 0zM54.297 984.256a1.005 1.005 0 1 1-2.01 0 1.005 1.005 0 0 1 2.01 0zM54.297 988.3a1.005 1.005 0 1 1-2.01 0 1.005 1.005 0 0 1 2.01 0zM54.297 992.314a1.005 1.005 0 1 1-2.01 0 1.005 1.005 0 0 1 2.01 0zM54.297 996.36a1.005 1.005 0 1 1-2.01 0 1.005 1.005 0 0 1 2.01 0zM54.297 1000.348a1.005 1.005 0 1 1-2.01 0 1.005 1.005 0 0 1 2.01 0zM54.297 1004.393a1.005 1.005 0 1 1-2.01 0 1.005 1.005 0 0 1 2.01 0zM54.297 1008.407a1.005 1.005 0 1 1-2.01 0 1.005 1.005 0 0 1 2.01 0zM54.297 1012.452a1.005 1.005 0 1 1-2.01 0 1.005 1.005 0 0 1 2.01 0zM54.297 1016.433a1.005 1.005 0 1 1-2.01 0 1.005 1.005 0 0 1 2.01 0zM54.297 1020.478a1.005 1.005 0 1 1-2.01 0 1.005 1.005 0 0 1 2.01 0zM54.297 1024.49a1.005 1.005 0 1 1-2.01 0 1.005 1.005 0 0 1 2.01 0zM54.297 1028.537a1.005 1.005 0 1 1-2.01 0 1.005 1.005 0 0 1 2.01 0zM58.317 988.3a1.005 1.005 0 1 1-2.01 0 1.005 1.005 0 0 1 2.01 0zM58.317 992.314a1.005 1.005 0 1 1-2.01 0 1.005 1.005 0 0 1 2.01 0zM58.317 996.36a1.005 1.005 0 1 1-2.01 0 1.005 1.005 0 0 1 2.01 0zM58.317 1000.348a1.005 1.005 0 1 1-2.01 0 1.005 1.005 0 0 1 2.01 0zM58.317 1004.393a1.005 1.005 0 1 1-2.01 0 1.005 1.005 0 0 1 2.01 0zM58.317 1008.407a1.005 1.005 0 1 1-2.01 0 1.005 1.005 0 0 1 2.01 0zM58.317 1012.452a1.005 1.005 0 1 1-2.01 0 1.005 1.005 0 0 1 2.01 0zM58.317 1016.433a1.005 1.005 0 1 1-2.01 0 1.005 1.005 0 0 1 2.01 0zM58.317 1020.478a1.005 1.005 0 1 1-2.01 0 1.005 1.005 0 0 1 2.01 0zM58.317 1024.49a1.005 1.005 0 1 1-2.01 0 1.005 1.005 0 0 1 2.01 0zM62.338 988.3a1.005 1.005 0 1 1-2.01 0 1.005 1.005 0 0 1 2.01 0zM62.338 992.314a1.005 1.005 0 1 1-2.01 0 1.005 1.005 0 0 1 2.01 0zM62.338 996.36a1.005 1.005 0 1 1-2.01 0 1.005 1.005 0 0 1 2.01 0zM62.338 1000.348a1.005 1.005 0 1 1-2.01 0 1.005 1.005 0 0 1 2.01 0zM62.338 1004.393a1.005 1.005 0 1 1-2.01 0 1.005 1.005 0 0 1 2.01 0zM62.338 1008.407a1.005 1.005 0 1 1-2.01 0 1.005 1.005 0 0 1 2.01 0zM62.338 1012.452a1.005 1.005 0 1 1-2.01 0 1.005 1.005 0 0 1 2.01 0zM62.338 1016.433a1.005 1.005 0 1 1-2.01 0 1.005 1.005 0 0 1 2.01 0zM62.338 1020.478a1.005 1.005 0 1 1-2.01 0 1.005 1.005 0 0 1 2.01 0zM66.357 988.3a1.005 1.005 0 1 1-2.01 0 1.005 1.005 0 0 1 2.01 0zM66.357 992.314a1.005 1.005 0 1 1-2.01 0 1.005 1.005 0 0 1 2.01 0zM66.357 996.36a1.005 1.005 0 1 1-2.01 0 1.005 1.005 0 0 1 2.01 0zM66.357 1000.348a1.005 1.005 0 1 1-2.01 0 1.005 1.005 0 0 1 2.01 0zM66.357 1004.393a1.005 1.005 0 1 1-2.01 0 1.005 1.005 0 0 1 2.01 0zM66.357 1008.407a1.005 1.005 0 1 1-2.01 0 1.005 1.005 0 0 1 2.01 0zM66.357 1012.452a1.005 1.005 0 1 1-2.01 0 1.005 1.005 0 0 1 2.01 0zM66.357 1016.433a1.005 1.005 0 1 1-2.01 0 1.005 1.005 0 0 1 2.01 0zM70.378 992.314a1.005 1.005 0 1 1-2.01 0 1.005 1.005 0 0 1 2.01 0zM70.378 996.36a1.005 1.005 0 1 1-2.01 0 1.005 1.005 0 0 1 2.01 0zM70.378 1000.348a1.005 1.005 0 1 1-2.01 0 1.005 1.005 0 0 1 2.01 0zM70.378 1004.393a1.005 1.005 0 1 1-2.01 0 1.005 1.005 0 0 1 2.01 0zM70.378 1008.407a1.005 1.005 0 1 1-2.01 0 1.005 1.005 0 0 1 2.01 0zM70.378 1012.452a1.005 1.005 0 1 1-2.01 0 1.005 1.005 0 0 1 2.01 0zM74.381 992.314a1.005 1.005 0 1 1-2.01 0 1.005 1.005 0 0 1 2.01 0zM74.381 996.36a1.005 1.005 0 1 1-2.01 0 1.005 1.005 0 0 1 2.01 0zM74.381 1000.348a1.005 1.005 0 1 1-2.01 0 1.005 1.005 0 0 1 2.01 0zM74.381 1004.393a1.005 1.005 0 1 1-2.01 0 1.005 1.005 0 0 1 2.01 0zM74.381 1008.407a1.005 1.005 0 1 1-2.01 0 1.005 1.005 0 0 1 2.01 0zM74.381 1012.452a1.005 1.005 0 1 1-2.01 0 1.005 1.005 0 0 1 2.01 0zM78.417 988.3a1.005 1.005 0 1 1-2.01 0 1.005 1.005 0 0 1 2.01 0zM78.417 992.314a1.005 1.005 0 1 1-2.01 0 1.005 1.005 0 0 1 2.01 0zM78.417 996.36a1.005 1.005 0 1 1-2.01 0 1.005 1.005 0 0 1 2.01 0zM78.417 1000.348a1.005 1.005 0 1 1-2.01 0 1.005 1.005 0 0 1 2.01 0zM78.417 1004.393a1.005 1.005 0 1 1-2.01 0 1.005 1.005 0 0 1 2.01 0zM78.417 1008.407a1.005 1.005 0 1 1-2.01 0 1.005 1.005 0 0 1 2.01 0zM82.437 992.314a1.005 1.005 0 1 1-2.01 0 1.005 1.005 0 0 1 2.01 0zM82.437 996.36a1.005 1.005 0 1 1-2.01 0 1.005 1.005 0 0 1 2.01 0zM86.447 992.285a1.005 1.005 0 1 1-2.01 0 1.005 1.005 0 0 1 2.01 0zM86.447 996.331a1.005 1.005 0 1 1-2.01 0 1.005 1.005 0 0 1 2.01 0zM86.447 1000.32a1.005 1.005 0 1 1-2.01 0 1.005 1.005 0 0 1 2.01 0zM86.447 1004.365a1.005 1.005 0 1 1-2.01 0 1.005 1.005 0 0 1 2.01 0zM90.463 988.273a1.005 1.005 0 1 1-2.01 0 1.005 1.005 0 0 1 2.01 0zM90.463 992.285a1.005 1.005 0 1 1-2.01 0 1.005 1.005 0 0 1 2.01 0zM90.463 996.331a1.005 1.005 0 1 1-2.01 0 1.005 1.005 0 0 1 2.01 0zM90.463 1000.32a1.005 1.005 0 1 1-2.01 0 1.005 1.005 0 0 1 2.01 0zM90.463 1004.365a1.005 1.005 0 1 1-2.01 0 1.005 1.005 0 0 1 2.01 0zM90.463 1008.379a1.005 1.005 0 1 1-2.01 0 1.005 1.005 0 0 1 2.01 0zM94.478 984.227a1.005 1.005 0 1 1-2.01 0 1.005 1.005 0 0 1 2.01 0zM94.478 988.273a1.005 1.005 0 1 1-2.01 0 1.005 1.005 0 0 1 2.01 0zM94.478 992.285a1.005 1.005 0 1 1-2.01 0 1.005 1.005 0 0 1 2.01 0zM94.478 996.331a1.005 1.005 0 1 1-2.01 0 1.005 1.005 0 0 1 2.01 0zM94.478 1000.32a1.005 1.005 0 1 1-2.01 0 1.005 1.005 0 0 1 2.01 0zM98.494 984.227a1.005 1.005 0 1 1-2.01 0 1.005 1.005 0 0 1 2.01 0zM98.494 988.273a1.005 1.005 0 1 1-2.01 0 1.005 1.005 0 0 1 2.01 0zM98.494 992.285a1.005 1.005 0 1 1-2.01 0 1.005 1.005 0 0 1 2.01 0zM98.494 996.331a1.005 1.005 0 1 1-2.01 0 1.005 1.005 0 0 1 2.01 0zM102.532 980.229a1.005 1.005 0 1 1-2.01 0 1.005 1.005 0 0 1 2.01 0zM102.532 984.195a1.005 1.005 0 1 1-2.01 0 1.005 1.005 0 0 1 2.01 0zM102.532 988.239a1.005 1.005 0 1 1-2.01 0 1.005 1.005 0 0 1 2.01 0zM106.559 984.233a1.005 1.005 0 1 1-2.01 0 1.005 1.005 0 0 1 2.01 0z"></path></g></svg>